<svg viewBox="0 0 500 600" xmlns="http://www.w3.org/2000/svg" xmlns:xlink="http://www.w3.org/1999/xlink" preserveAspectRatio="none">
  <defs>
    <!-- Frame 1: Large Left -->
    <pattern id="img1" patternUnits="userSpaceOnUse" x="12.5" y="22.5" width="240" height="555">
      <image href="" x="0" y="0" width="240" height="555" preserveAspectRatio="xMidYMid slice" />
    </pattern>
    <clipPath id="clip1">
      <path d="M12.5 22.5 h240 v555 h-240 Z" />
    </clipPath>

    <!-- Frame 2: Top Right Top Left -->
    <pattern id="img2" patternUnits="userSpaceOnUse" x="257.5" y="22.5" width="112" height="165">
      <image href="" x="0" y="0" width="112" height="165" preserveAspectRatio="xMidYMid slice" />
    </pattern>
    <clipPath id="clip2">
      <path d="M257.5 22.5 h112 v165 h-112 Z" />
    </clipPath>

    <!-- Frame 3: Top Right Top Right -->
    <pattern id="img3" patternUnits="userSpaceOnUse" x="374.5" y="22.5" width="113" height="165">
      <image href="" x="0" y="0" width="113" height="165" preserveAspectRatio="xMidYMid slice" />
    </pattern>
    <clipPath id="clip3">
      <path d="M374.5 22.5 h113 v165 h-113 Z" />
    </clipPath>

    <!-- Frame 4: Middle Right -->
    <pattern id="img4" patternUnits="userSpaceOnUse" x="257.5" y="192.5" width="230" height="185">
      <image href="" x="0" y="0" width="230" height="185" preserveAspectRatio="xMidYMid slice" />
    </pattern>
    <clipPath id="clip4">
      <path d="M257.5 192.5 h230 v185 h-230 Z" />
    </clipPath>

    <!-- Frame 5: Bottom Right Left -->
    <pattern id="img5" patternUnits="userSpaceOnUse" x="257.5" y="382.5" width="112" height="195">
      <image href="" x="0" y="0" width="112" height="195" preserveAspectRatio="xMidYMid slice" />
    </pattern>
    <clipPath id="clip5">
      <path d="M257.5 382.5 h112 v195 h-112 Z" />
    </clipPath>

    <!-- Frame 6: Bottom Right Right -->
    <pattern id="img6" patternUnits="userSpaceOnUse" x="374.5" y="382.5" width="113" height="195">
      <image href="" x="0" y="0" width="113" height="195" preserveAspectRatio="xMidYMid slice" />
    </pattern>
    <clipPath id="clip6">
      <path d="M374.5 382.5 h113 v195 h-113 Z" />
    </clipPath>
  </defs>

  <!-- Background -->
  <rect width="500" height="600" fill="#f5f5f5" />

  <!-- Image frames -->
  <rect x="12.5" y="22.5" width="240" height="555" fill="url(#img1)" clip-path="url(#clip1)" data-photo-frame="1" />
  <rect x="257.5" y="22.5" width="112" height="165" fill="url(#img2)" clip-path="url(#clip2)" data-photo-frame="2" />
  <rect x="374.5" y="22.5" width="113" height="165" fill="url(#img3)" clip-path="url(#clip3)" data-photo-frame="3" />
  <rect x="257.5" y="192.5" width="230" height="185" fill="url(#img4)" clip-path="url(#clip4)" data-photo-frame="4" />
  <rect x="257.5" y="382.5" width="112" height="195" fill="url(#img5)" clip-path="url(#clip5)" data-photo-frame="5" />
  <rect x="374.5" y="382.5" width="113" height="195" fill="url(#img6)" clip-path="url(#clip6)" data-photo-frame="6" />
</svg>