<svg viewBox="0 0 500 600" xmlns="http://www.w3.org/2000/svg" xmlns:xlink="http://www.w3.org/1999/xlink" preserveAspectRatio="none">
  <defs>
    <!-- Frame 1: Large Left -->
    <pattern id="img1" patternUnits="userSpaceOnUse" x="0" y="0" width="252.5" height="600">
      <image href="" x="0" y="0" width="252.5" height="600" preserveAspectRatio="xMidYMid slice" />
    </pattern>
    <clipPath id="clip1">
      <path d="M0 0 h252.5 v600 h-252.5 Z" />
    </clipPath>

    <!-- Frame 2: Top Right -->
    <pattern id="img2" patternUnits="userSpaceOnUse" x="257.5" y="0" width="242.5" height="195">
      <image href="" x="0" y="0" width="242.5" height="195" preserveAspectRatio="xMidYMid slice" />
    </pattern>
    <clipPath id="clip2">
      <path d="M257.5 0 h242.5 v195 h-242.5 Z" />
    </clipPath>

    <!-- Frame 3: Middle Right -->
    <pattern id="img3" patternUnits="userSpaceOnUse" x="257.5" y="200" width="242.5" height="195">
      <image href="" x="0" y="0" width="242.5" height="195" preserveAspectRatio="xMidYMid slice" />
    </pattern>
    <clipPath id="clip3">
      <path d="M257.5 200 h242.5 v195 h-242.5 Z" />
    </clipPath>

    <!-- Frame 4: Bottom Right -->
    <pattern id="img4" patternUnits="userSpaceOnUse" x="257.5" y="400" width="242.5" height="200">
      <image href="" x="0" y="0" width="242.5" height="200" preserveAspectRatio="xMidYMid slice" />
    </pattern>
    <clipPath id="clip4">
      <path d="M257.5 400 h242.5 v200 h-242.5 Z" />
    </clipPath>
  </defs>

  <!-- Image frames -->
  <rect x="0" y="0" width="252.5" height="600" fill="url(#img1)" clip-path="url(#clip1)" data-photo-frame="1" />
  <rect x="257.5" y="0" width="242.5" height="195" fill="url(#img2)" clip-path="url(#clip2)" data-photo-frame="2" />
  <rect x="257.5" y="200" width="242.5" height="195" fill="url(#img3)" clip-path="url(#clip3)" data-photo-frame="3" />
  <rect x="257.5" y="400" width="242.5" height="200" fill="url(#img4)" clip-path="url(#clip4)" data-photo-frame="4" />
</svg>