<svg viewBox="0 0 500 600" xmlns="http://www.w3.org/2000/svg" xmlns:xlink="http://www.w3.org/1999/xlink" preserveAspectRatio="none">
  <defs>
    <pattern id="img1" patternUnits="userSpaceOnUse" x="20" y="30" width="293" height="540">
      <image href="" x="0" y="0" width="293" height="540" preserveAspectRatio="xMidYMid meet" />
    </pattern>
    <clipPath id="clip1">
      <path d="M20 30 h293 v540 h-293 Z" />
    </clipPath>

    <pattern id="img2" patternUnits="userSpaceOnUse" x="318" y="30" width="162" height="165">
      <image href="" x="0" y="0" width="162" height="165" preserveAspectRatio="xMidYMid meet" />
    </pattern>
    <clipPath id="clip2">
      <path d="M318 30 h162 v165 h-162 Z" />
    </clipPath>

    <pattern id="img3" patternUnits="userSpaceOnUse" x="318" y="200" width="162" height="175">
      <image href="" x="0" y="0" width="162" height="175" preserveAspectRatio="xMidYMid meet" />
    </pattern>
    <clipPath id="clip3">
      <path d="M318 200 h162 v175 h-162 Z" />
    </clipPath>

    <pattern id="img4" patternUnits="userSpaceOnUse" x="318" y="380" width="162" height="190">
      <image href="" x="0" y="0" width="162" height="190" preserveAspectRatio="xMidYMid meet" />
    </pattern>
    <clipPath id="clip4">
      <path d="M318 380 h162 v190 h-162 Z" />
    </clipPath>
  </defs>

  <rect width="500" height="600" fill="#f5f5f5" />

  <rect x="20" y="30" width="293" height="540" fill="url(#img1)" clip-path="url(#clip1)" data-photo-frame="1" />
  <rect x="318" y="30" width="162" height="165" fill="url(#img2)" clip-path="url(#clip2)" data-photo-frame="2" />
  <rect x="318" y="200" width="162" height="175" fill="url(#img3)" clip-path="url(#clip3)" data-photo-frame="3" />
  <rect x="318" y="380" width="162" height="190" fill="url(#img4)" clip-path="url(#clip4)" data-photo-frame="4" />
</svg>