<svg viewBox="0 0 500 600" xmlns="http://www.w3.org/2000/svg" xmlns:xlink="http://www.w3.org/1999/xlink" preserveAspectRatio="none">
  <defs>
    <pattern id="img1" patternUnits="userSpaceOnUse" x="20" y="20" width="215" height="140">
      <image href="" x="0" y="0" width="215" height="140" preserveAspectRatio="xMidYMid slice" />
    </pattern>
    <clipPath id="clip1">
      <path d="M20 20 h215 v140 h-215 Z" />
    </clipPath>

    <pattern id="img2" patternUnits="userSpaceOnUse" x="265" y="20" width="215" height="140">
      <image href="" x="0" y="0" width="215" height="140" preserveAspectRatio="xMidYMid slice" />
    </pattern>
    <clipPath id="clip2">
      <path d="M265 20 h215 v140 h-215 Z" />
    </clipPath>

    <pattern id="img3" patternUnits="userSpaceOnUse" x="20" y="190" width="140" height="180">
      <image href="" x="0" y="0" width="140" height="180" preserveAspectRatio="xMidYMid slice" />
    </pattern>
    <clipPath id="clip3">
      <path d="M20 190 h140 v180 h-140 Z" />
    </clipPath>

    <pattern id="img4" patternUnits="userSpaceOnUse" x="190" y="190" width="290" height="390">
      <image href="" x="0" y="0" width="290" height="390" preserveAspectRatio="xMidYMid slice" />
    </pattern>
    <clipPath id="clip4">
      <path d="M190 190 h290 v390 h-290 Z" />
    </clipPath>

    <pattern id="img5" patternUnits="userSpaceOnUse" x="20" y="400" width="140" height="180">
      <image href="" x="0" y="0" width="140" height="180" preserveAspectRatio="xMidYMid slice" />
    </pattern>
    <clipPath id="clip5">
      <path d="M20 400 h140 v180 h-140 Z" />
    </clipPath>
  </defs>

  <rect width="500" height="600" fill="#f5f5f5" />

  <rect x="20" y="20" width="215" height="140" fill="url(#img1)" clip-path="url(#clip1)" data-photo-frame="1" />
  <rect x="265" y="20" width="215" height="140" fill="url(#img2)" clip-path="url(#clip2)" data-photo-frame="2" />
  <rect x="20" y="190" width="140" height="180" fill="url(#img3)" clip-path="url(#clip3)" data-photo-frame="3" />
  <rect x="190" y="190" width="290" height="390" fill="url(#img4)" clip-path="url(#clip4)" data-photo-frame="4" />
  <rect x="20" y="400" width="140" height="180" fill="url(#img5)" clip-path="url(#clip5)" data-photo-frame="5" />
</svg>