<svg viewBox="0 0 500 600" xmlns="http://www.w3.org/2000/svg" xmlns:xlink="http://www.w3.org/1999/xlink" preserveAspectRatio="none">
  <defs>
    <!-- FRAME 1: Top Left -->
    <clipPath id="clip1">
      <path d="M20 24 H170 V184 H20 Z"/>
    </clipPath>
    <pattern id="img1" patternUnits="userSpaceOnUse" x="20" y="24" width="150" height="160">
      <image href="" preserveAspectRatio="xMidYMid slice" x="0" y="0" width="150" height="160" />
    </pattern>

    <!-- FRAME 2: Top Center -->
    <clipPath id="clip2">
      <path d="M185 24 H335 V184 H185 Z"/>
    </clipPath>
    <pattern id="img2" patternUnits="userSpaceOnUse" x="185" y="24" width="150" height="160">
      <image href="" preserveAspectRatio="xMidYMid slice" x="0" y="0" width="150" height="160" />
    </pattern>

    <!-- FRAME 3: Top Right -->
    <clipPath id="clip3">
      <path d="M350 24 H480 V184 H350 Z"/>
    </clipPath>
    <pattern id="img3" patternUnits="userSpaceOnUse" x="350" y="24" width="130" height="160">
      <image href="" preserveAspectRatio="xMidYMid slice" x="0" y="0" width="130" height="160" />
    </pattern>

    <!-- FRAME 4: Bottom Left -->
    <clipPath id="clip4">
      <path d="M20 199 H245 V407 H20 Z"/>
    </clipPath>
    <pattern id="img4" patternUnits="userSpaceOnUse" x="20" y="199" width="225" height="208">
      <image href="" preserveAspectRatio="xMidYMid slice" x="0" y="0" width="225" height="208" />
    </pattern>

    <!-- FRAME 5: Bottom Right -->
    <clipPath id="clip5">
      <path d="M255 199 H480 V407 H255 Z"/>
    </clipPath>
    <pattern id="img5" patternUnits="userSpaceOnUse" x="255" y="199" width="225" height="208">
      <image href="" preserveAspectRatio="xMidYMid slice" x="0" y="0" width="225" height="208" />
    </pattern>
  </defs>

  <!-- Background color of the page -->
  <rect width="500" height="600" fill="#f5f5f5"/>

  <!-- Photo Frames -->
  <g>
    <!-- Frame 1 -->
    <path d="M20 24 H170 V184 H20 Z" fill="url(#img1)" clip-path="url(#clip1)" data-photo-frame="1" />
    <!-- Frame 2 -->
    <path d="M185 24 H335 V184 H185 Z" fill="url(#img2)" clip-path="url(#clip2)" data-photo-frame="2" />
    <!-- Frame 3 -->
    <path d="M350 24 H480 V184 H350 Z" fill="url(#img3)" clip-path="url(#clip3)" data-photo-frame="3" />
    <!-- Frame 4 -->
    <path d="M20 199 H245 V407 H20 Z" fill="url(#img4)" clip-path="url(#clip4)" data-photo-frame="4" />
    <!-- Frame 5 -->
    <path d="M255 199 H480 V407 H255 Z" fill="url(#img5)" clip-path="url(#clip5)" data-photo-frame="5" />
  </g>
</svg>