<svg viewBox="0 0 500 600" xmlns="http://www.w3.org/2000/svg" xmlns:xlink="http://www.w3.org/1999/xlink" preserveAspectRatio="none">
  <defs>
    <pattern id="img1" patternUnits="userSpaceOnUse" x="20" y="30" width="280" height="540">
      <image href="" x="0" y="0" width="280" height="540" preserveAspectRatio="xMidYMid slice" />
    </pattern>
    <clipPath id="clip1">
      <path d="M20 30 h280 v540 h-280 Z" />
    </clipPath>

    <pattern id="img2" patternUnits="userSpaceOnUse" x="330" y="30" width="150" height="150">
      <image href="" x="0" y="0" width="150" height="150" preserveAspectRatio="xMidYMid slice" />
    </pattern>
    <clipPath id="clip2">
      <path d="M330 30 h150 v150 h-150 Z" />
    </clipPath>

    <pattern id="img3" patternUnits="userSpaceOnUse" x="330" y="225" width="150" height="150">
      <image href="" x="0" y="0" width="150" height="150" preserveAspectRatio="xMidYMid slice" />
    </pattern>
    <clipPath id="clip3">
      <path d="M330 225 h150 v150 h-150 Z" />
    </clipPath>

    <pattern id="img4" patternUnits="userSpaceOnUse" x="330" y="420" width="150" height="150">
      <image href="" x="0" y="0" width="150" height="150" preserveAspectRatio="xMidYMid slice" />
    </pattern>
    <clipPath id="clip4">
      <path d="M330 420 h150 v150 h-150 Z" />
    </clipPath>
  </defs>

  <rect width="500" height="600" fill="#f5f5f5" />

  <rect x="20" y="30" width="280" height="540" fill="url(#img1)" clip-path="url(#clip1)" data-photo-frame="1" />
  <rect x="330" y="30" width="150" height="150" fill="url(#img2)" clip-path="url(#clip2)" data-photo-frame="2" />
  <rect x="330" y="225" width="150" height="150" fill="url(#img3)" clip-path="url(#clip3)" data-photo-frame="3" />
  <rect x="330" y="420" width="150" height="150" fill="url(#img4)" clip-path="url(#clip4)" data-photo-frame="4" />
</svg>