<svg viewBox="0 0 500 600" xmlns="http://www.w3.org/2000/svg" xmlns:xlink="http://www.w3.org/1999/xlink" preserveAspectRatio="none">
  <defs>
    <!-- Frame 1: Top Wide -->
    <pattern id="img1" patternUnits="userSpaceOnUse" x="15" y="22.5" width="470" height="100">
      <image href="" x="0" y="0" width="470" height="100" preserveAspectRatio="xMidYMid slice" />
    </pattern>
    <clipPath id="clip1">
      <path d="M15 22.5 h470 v100 h-470 Z" />
    </clipPath>

    <!-- Frame 2: Middle Left -->
    <pattern id="img2" patternUnits="userSpaceOnUse" x="15" y="127.5" width="150" height="210">
      <image href="" x="0" y="0" width="150" height="210" preserveAspectRatio="xMidYMid slice" />
    </pattern>
    <clipPath id="clip2">
      <path d="M15 127.5 h150 v210 h-150 Z" />
    </clipPath>

    <!-- Frame 3: Middle Center -->
    <pattern id="img3" patternUnits="userSpaceOnUse" x="170" y="127.5" width="160" height="210">
      <image href="" x="0" y="0" width="160" height="210" preserveAspectRatio="xMidYMid slice" />
    </pattern>
    <clipPath id="clip3">
      <path d="M170 127.5 h160 v210 h-160 Z" />
    </clipPath>

    <!-- Frame 4: Middle Right -->
    <pattern id="img4" patternUnits="userSpaceOnUse" x="335" y="127.5" width="150" height="210">
      <image href="" x="0" y="0" width="150" height="210" preserveAspectRatio="xMidYMid slice" />
    </pattern>
    <clipPath id="clip4">
      <path d="M335 127.5 h150 v210 h-150 Z" />
    </clipPath>

    <!-- Frame 5: Bottom Wide -->
    <pattern id="img5" patternUnits="userSpaceOnUse" x="15" y="342.5" width="470" height="235">
      <image href="" x="0" y="0" width="470" height="235" preserveAspectRatio="xMidYMid slice" />
    </pattern>
    <clipPath id="clip5">
      <path d="M15 342.5 h470 v235 h-470 Z" />
    </clipPath>
  </defs>

  <!-- Background -->
  <rect width="500" height="600" fill="#f5f5f5" />

  <!-- White borders around frames -->
  <rect x="10" y="17.5" width="480" height="110" fill="#FFFFFF" style="filter: drop-shadow(1px 1px 3px rgba(0,0,0,0.1));" />
  <rect x="10" y="122.5" width="160" height="220" fill="#FFFFFF" style="filter: drop-shadow(1px 1px 3px rgba(0,0,0,0.1));" />
  <rect x="165" y="122.5" width="170" height="220" fill="#FFFFFF" style="filter: drop-shadow(1px 1px 3px rgba(0,0,0,0.1));" />
  <rect x="330" y="122.5" width="160" height="220" fill="#FFFFFF" style="filter: drop-shadow(1px 1px 3px rgba(0,0,0,0.1));" />
  <rect x="10" y="337.5" width="480" height="245" fill="#FFFFFF" style="filter: drop-shadow(1px 1px 3px rgba(0,0,0,0.1));" />

  <!-- Image frames -->
  <rect x="15" y="22.5" width="470" height="100" fill="url(#img1)" clip-path="url(#clip1)" data-photo-frame="1" />
  <rect x="15" y="127.5" width="150" height="210" fill="url(#img2)" clip-path="url(#clip2)" data-photo-frame="2" />
  <rect x="170" y="127.5" width="160" height="210" fill="url(#img3)" clip-path="url(#clip3)" data-photo-frame="3" />
  <rect x="335" y="127.5" width="150" height="210" fill="url(#img4)" clip-path="url(#clip4)" data-photo-frame="4" />
  <rect x="15" y="342.5" width="470" height="235" fill="url(#img5)" clip-path="url(#clip5)" data-photo-frame="5" />
</svg>