<svg viewBox="0 0 500 600" xmlns="http://www.w3.org/2000/svg" xmlns:xlink="http://www.w3.org/1999/xlink" preserveAspectRatio="none">
    <defs>
        <!-- Frame 1: Top Left (325x270) -->
        <pattern id="img1" patternUnits="userSpaceOnUse" x="0" y="0" width="330" height="275">
            <image href="" x="0" y="0" width="330" height="275" preserveAspectRatio="xMidYMid slice" />
        </pattern>
        <clipPath id="clip1">
            <path d="M0 0 H330 V275 H0 Z" />
        </clipPath>

        <!-- Frame 2: Top Right Upper (169x131) -->
        <pattern id="img2" patternUnits="userSpaceOnUse" x="335" y="0" width="165" height="133">
            <image href="" x="0" y="0" width="165" height="133" preserveAspectRatio="xMidYMid slice" />
        </pattern>
        <clipPath id="clip2">
            <path d="M335 0 H500 V133 H335 Z" />
        </clipPath>

        <!-- Frame 3: Top Right Lower (169x131) -->
        <pattern id="img3" patternUnits="userSpaceOnUse" x="335" y="138" width="165" height="137">
            <image href="" x="0" y="0" width="165" height="137" preserveAspectRatio="xMidYMid slice" />
        </pattern>
        <clipPath id="clip3">
            <path d="M335 138 H500 V275 H335 Z" />
        </clipPath>

        <!-- Frame 4: Bottom Left (200x323) -->
        <pattern id="img4" patternUnits="userSpaceOnUse" x="0" y="280" width="208" height="320">
            <image href="" x="0" y="0" width="208" height="320" preserveAspectRatio="xMidYMid slice" />
        </pattern>
        <clipPath id="clip4">
            <path d="M0 280 H208 V600 H0 Z" />
        </clipPath>

        <!-- Frame 5: Bottom Right Upper (294x150) -->
        <pattern id="img5" patternUnits="userSpaceOnUse" x="213" y="280" width="287" height="152">
            <image href="" x="0" y="0" width="287" height="152" preserveAspectRatio="xMidYMid slice" />
        </pattern>
        <clipPath id="clip5">
            <path d="M213 280 H500 V432 H213 Z" />
        </clipPath>

        <!-- Frame 6: Bottom Right Lower Left (144x165) -->
        <pattern id="img6" patternUnits="userSpaceOnUse" x="213" y="437" width="140" height="163">
            <image href="" x="0" y="0" width="140" height="163" preserveAspectRatio="xMidYMid slice" />
        </pattern>
        <clipPath id="clip6">
            <path d="M213 437 H353 V600 H213 Z" />
        </clipPath>

        <!-- Frame 7: Bottom Right Lower Right (144x165) -->
        <pattern id="img7" patternUnits="userSpaceOnUse" x="358" y="437" width="142" height="163">
            <image href="" x="0" y="0" width="142" height="163" preserveAspectRatio="xMidYMid slice" />
        </pattern>
        <clipPath id="clip7">
            <path d="M358 437 H500 V600 H358 Z" />
        </clipPath>
    </defs>

    <!-- Background -->
    <rect width="500" height="600" fill="#FFFFFF" />

    <!-- Image frames -->
    <g>
        <path d="M0 0 H330 V275 H0 Z" fill="url(#img1)" clip-path="url(#clip1)" data-photo-frame="1" />
        <path d="M335 0 H500 V133 H335 Z" fill="url(#img2)" clip-path="url(#clip2)" data-photo-frame="2" />
        <path d="M335 138 H500 V275 H335 Z" fill="url(#img3)" clip-path="url(#clip3)" data-photo-frame="3" />
        <path d="M0 280 H208 V600 H0 Z" fill="url(#img4)" clip-path="url(#clip4)" data-photo-frame="4" />
        <path d="M213 280 H500 V432 H213 Z" fill="url(#img5)" clip-path="url(#clip5)" data-photo-frame="5" />
        <path d="M213 437 H353 V600 H213 Z" fill="url(#img6)" clip-path="url(#clip6)" data-photo-frame="6" />
        <path d="M358 437 H500 V600 H358 Z" fill="url(#img7)" clip-path="url(#clip7)" data-photo-frame="7" />
    </g>
</svg>