<svg viewBox="0 0 500 600" xmlns="http://www.w3.org/2000/svg" xmlns:xlink="http://www.w3.org/1999/xlink" preserveAspectRatio="none">
  <defs>
    <!-- Frame 1: Large Left -->
    <pattern id="img1" patternUnits="userSpaceOnUse" x="0" y="0" width="247.5" height="600">
      <image href="" x="0" y="0" width="247.5" height="600" preserveAspectRatio="xMidYMid slice" />
    </pattern>
    <clipPath id="clip1">
      <path d="M0 0 h247.5 v600 h-247.5 Z" />
    </clipPath>

    <!-- Frame 2: Top Right Top Left -->
    <pattern id="img2" patternUnits="userSpaceOnUse" x="252.5" y="0" width="121.25" height="182.5">
      <image href="" x="0" y="0" width="121.25" height="182.5" preserveAspectRatio="xMidYMid slice" />
    </pattern>
    <clipPath id="clip2">
      <path d="M252.5 0 h121.25 v182.5 h-121.25 Z" />
    </clipPath>

    <!-- Frame 3: Top Right Top Right -->
    <pattern id="img3" patternUnits="userSpaceOnUse" x="378.75" y="0" width="121.25" height="182.5">
      <image href="" x="0" y="0" width="121.25" height="182.5" preserveAspectRatio="xMidYMid slice" />
    </pattern>
    <clipPath id="clip3">
      <path d="M378.75 0 h121.25 v182.5 h-121.25 Z" />
    </clipPath>

    <!-- Frame 4: Middle Right -->
    <pattern id="img4" patternUnits="userSpaceOnUse" x="252.5" y="187.5" width="247.5" height="210">
      <image href="" x="0" y="0" width="247.5" height="210" preserveAspectRatio="xMidYMid slice" />
    </pattern>
    <clipPath id="clip4">
      <path d="M252.5 187.5 h247.5 v210 h-247.5 Z" />
    </clipPath>

    <!-- Frame 5: Bottom Right Left -->
    <pattern id="img5" patternUnits="userSpaceOnUse" x="252.5" y="402.5" width="121.25" height="197.5">
      <image href="" x="0" y="0" width="121.25" height="197.5" preserveAspectRatio="xMidYMid slice" />
    </pattern>
    <clipPath id="clip5">
      <path d="M252.5 402.5 h121.25 v197.5 h-121.25 Z" />
    </clipPath>

    <!-- Frame 6: Bottom Right Right -->
    <pattern id="img6" patternUnits="userSpaceOnUse" x="378.75" y="402.5" width="121.25" height="197.5">
      <image href="" x="0" y="0" width="121.25" height="197.5" preserveAspectRatio="xMidYMid slice" />
    </pattern>
    <clipPath id="clip6">
      <path d="M378.75 402.5 h121.25 v197.5 h-121.25 Z" />
    </clipPath>
  </defs>

  <!-- Image frames -->
  <rect x="0" y="0" width="247.5" height="600" fill="url(#img1)" clip-path="url(#clip1)" data-photo-frame="1" />
  <rect x="252.5" y="0" width="121.25" height="182.5" fill="url(#img2)" clip-path="url(#clip2)" data-photo-frame="2" />
  <rect x="378.75" y="0" width="121.25" height="182.5" fill="url(#img3)" clip-path="url(#clip3)" data-photo-frame="3" />
  <rect x="252.5" y="187.5" width="247.5" height="210" fill="url(#img4)" clip-path="url(#clip4)" data-photo-frame="4" />
  <rect x="252.5" y="402.5" width="121.25" height="197.5" fill="url(#img5)" clip-path="url(#clip5)" data-photo-frame="5" />
  <rect x="378.75" y="402.5" width="121.25" height="197.5" fill="url(#img6)" clip-path="url(#clip6)" data-photo-frame="6" />
</svg>