<svg viewBox="0 0 500 600" xmlns="http://www.w3.org/2000/svg" xmlns:xlink="http://www.w3.org/1999/xlink" preserveAspectRatio="none">
  <defs>
    <!-- Frame 1: Top Left Small -->
    <pattern id="img1" patternUnits="userSpaceOnUse" x="0" y="0" width="195" height="195">
      <image href="" x="0" y="0" width="195" height="195" preserveAspectRatio="xMidYMid slice" />
    </pattern>
    <clipPath id="clip1">
      <path d="M0 0 h195 v195 h-195 Z" />
    </clipPath>

    <!-- Frame 2: Top Right Large -->
    <pattern id="img2" patternUnits="userSpaceOnUse" x="200" y="0" width="300" height="265">
      <image href="" x="0" y="0" width="300" height="265" preserveAspectRatio="xMidYMid slice" />
    </pattern>
    <clipPath id="clip2">
      <path d="M200 0 h300 v265 h-300 Z" />
    </clipPath>

    <!-- Frame 3: Bottom Left Tall -->
    <pattern id="img3" patternUnits="userSpaceOnUse" x="0" y="200" width="195" height="400">
      <image href="" x="0" y="0" width="195" height="400" preserveAspectRatio="xMidYMid slice" />
    </pattern>
    <clipPath id="clip3">
      <path d="M0 200 h195 v400 h-195 Z" />
    </clipPath>

    <!-- Frame 4: Bottom Right Top -->
    <pattern id="img4" patternUnits="userSpaceOnUse" x="200" y="270" width="165" height="165">
      <image href="" x="0" y="0" width="165" height="165" preserveAspectRatio="xMidYMid slice" />
    </pattern>
    <clipPath id="clip4">
      <path d="M200 270 h165 v165 h-165 Z" />
    </clipPath>

    <!-- Frame 5: Bottom Right Bottom -->
    <pattern id="img5" patternUnits="userSpaceOnUse" x="370" y="270" width="130" height="330">
      <image href="" x="0" y="0" width="130" height="330" preserveAspectRatio="xMidYMid slice" />
    </pattern>
    <clipPath id="clip5">
      <path d="M370 270 h130 v330 h-130 Z" />
    </clipPath>
  </defs>

  <!-- Image frames -->
  <rect x="0" y="0" width="195" height="195" fill="url(#img1)" clip-path="url(#clip1)" data-photo-frame="1" />
  <rect x="200" y="0" width="300" height="265" fill="url(#img2)" clip-path="url(#clip2)" data-photo-frame="2" />
  <rect x="0" y="200" width="195" height="400" fill="url(#img3)" clip-path="url(#clip3)" data-photo-frame="3" />
  <rect x="200" y="270" width="165" height="165" fill="url(#img4)" clip-path="url(#clip4)" data-photo-frame="4" />
  <rect x="370" y="270" width="130" height="330" fill="url(#img5)" clip-path="url(#clip5)" data-photo-frame="5" />
</svg>