<svg viewBox="0 0 500 600" xmlns="http://www.w3.org/2000/svg" xmlns:xlink="http://www.w3.org/1999/xlink" preserveAspectRatio="none">
  <defs>
    <pattern id="img1" patternUnits="userSpaceOnUse" x="20" y="20" width="460" height="268">
      <image href="" x="0" y="0" width="460" height="268" preserveAspectRatio="xMidYMid meet" />
    </pattern>
    <clipPath id="clip1">
      <path d="M20 20 h460 v268 h-460 Z" />
    </clipPath>

    <pattern id="img2" patternUnits="userSpaceOnUse" x="20" y="293" width="228" height="132">
      <image href="" x="0" y="0" width="228" height="132" preserveAspectRatio="xMidYMid meet" />
    </pattern>
    <clipPath id="clip2">
      <path d="M20 293 h228 v132 h-228 Z" />
    </clipPath>

    <pattern id="img3" patternUnits="userSpaceOnUse" x="253" y="293" width="227" height="132">
      <image href="" x="0" y="0" width="227" height="132" preserveAspectRatio="xMidYMid meet" />
    </pattern>
    <clipPath id="clip3">
      <path d="M253 293 h227 v132 h-227 Z" />
    </clipPath>

    <pattern id="img4" patternUnits="userSpaceOnUse" x="20" y="430" width="228" height="150">
      <image href="" x="0" y="0" width="228" height="150" preserveAspectRatio="xMidYMid meet" />
    </pattern>
    <clipPath id="clip4">
      <path d="M20 430 h228 v150 h-228 Z" />
    </clipPath>

    <pattern id="img5" patternUnits="userSpaceOnUse" x="253" y="430" width="227" height="150">
      <image href="" x="0" y="0" width="227" height="150" preserveAspectRatio="xMidYMid meet" />
    </pattern>
    <clipPath id="clip5">
      <path d="M253 430 h227 v150 h-227 Z" />
    </clipPath>
  </defs>

  <rect width="500" height="600" fill="#f5f5f5" />

  <rect x="20" y="20" width="460" height="268" fill="url(#img1)" clip-path="url(#clip1)" data-photo-frame="1" />
  <rect x="20" y="293" width="228" height="132" fill="url(#img2)" clip-path="url(#clip2)" data-photo-frame="2" />
  <rect x="253" y="293" width="227" height="132" fill="url(#img3)" clip-path="url(#clip3)" data-photo-frame="3" />
  <rect x="20" y="430" width="228" height="150" fill="url(#img4)" clip-path="url(#clip4)" data-photo-frame="4" />
  <rect x="253" y="430" width="227" height="150" fill="url(#img5)" clip-path="url(#clip5)" data-photo-frame="5" />
</svg>