<svg viewBox="0 0 500 600" xmlns="http://www.w3.org/2000/svg" xmlns:xlink="http://www.w3.org/1999/xlink" preserveAspectRatio="none">
    <defs>
        <!-- Frame 1: Top Left (325x270) -->
        <pattern id="img1" patternUnits="userSpaceOnUse" x="0" y="0" width="325" height="270">
            <image href="" x="0" y="0" width="325" height="270" preserveAspectRatio="xMidYMid slice" />
        </pattern>
        <clipPath id="clip1">
            <path d="M0 0 H325 V270 H0 Z" />
        </clipPath>

        <!-- Frame 2: Top Right Upper (169x131) -->
        <pattern id="img2" patternUnits="userSpaceOnUse" x="331" y="0" width="169" height="131">
            <image href="" x="0" y="0" width="169" height="131" preserveAspectRatio="xMidYMid slice" />
        </pattern>
        <clipPath id="clip2">
            <path d="M331 0 H500 V131 H331 Z" />
        </clipPath>

        <!-- Frame 3: Top Right Lower (169x131) -->
        <pattern id="img3" patternUnits="userSpaceOnUse" x="331" y="139" width="169" height="131">
            <image href="" x="0" y="0" width="169" height="131" preserveAspectRatio="xMidYMid slice" />
        </pattern>
        <clipPath id="clip3">
            <path d="M331 139 H500 V270 H331 Z" />
        </clipPath>

        <!-- Frame 4: Bottom Left (200x323) -->
        <pattern id="img4" patternUnits="userSpaceOnUse" x="0" y="277" width="200" height="323">
            <image href="" x="0" y="0" width="200" height="323" preserveAspectRatio="xMidYMid slice" />
        </pattern>
        <clipPath id="clip4">
            <path d="M0 277 H200 V600 H0 Z" />
        </clipPath>

        <!-- Frame 5: Bottom Right Upper (294x150) -->
        <pattern id="img5" patternUnits="userSpaceOnUse" x="206" y="277" width="294" height="150">
            <image href="" x="0" y="0" width="294" height="150" preserveAspectRatio="xMidYMid slice" />
        </pattern>
        <clipPath id="clip5">
            <path d="M206 277 H500 V427 H206 Z" />
        </clipPath>

        <!-- Frame 6: Bottom Right Lower Left (144x165) -->
        <pattern id="img6" patternUnits="userSpaceOnUse" x="206" y="435" width="144" height="165">
            <image href="" x="0" y="0" width="144" height="165" preserveAspectRatio="xMidYMid slice" />
        </pattern>
        <clipPath id="clip6">
            <path d="M206 435 H350 V600 H206 Z" />
        </clipPath>

        <!-- Frame 7: Bottom Right Lower Right (144x165) -->
        <pattern id="img7" patternUnits="userSpaceOnUse" x="356" y="435" width="144" height="165">
            <image href="" x="0" y="0" width="144" height="165" preserveAspectRatio="xMidYMid slice" />
        </pattern>
        <clipPath id="clip7">
            <path d="M356 435 H500 V600 H356 Z" />
        </clipPath>
    </defs>

    <!-- Background -->
    <rect width="500" height="600" fill="#FFFFFF" />

    <!-- Image frames -->
    <g>
        <path d="M0 0 H325 V270 H0 Z" fill="url(#img1)" clip-path="url(#clip1)" data-photo-frame="1" />
        <path d="M331 0 H500 V131 H331 Z" fill="url(#img2)" clip-path="url(#clip2)" data-photo-frame="2" />
        <path d="M331 139 H500 V270 H331 Z" fill="url(#img3)" clip-path="url(#clip3)" data-photo-frame="3" />
        <path d="M0 277 H200 V600 H0 Z" fill="url(#img4)" clip-path="url(#clip4)" data-photo-frame="4" />
        <path d="M206 277 H500 V427 H206 Z" fill="url(#img5)" clip-path="url(#clip5)" data-photo-frame="5" />
        <path d="M206 435 H350 V600 H206 Z" fill="url(#img6)" clip-path="url(#clip6)" data-photo-frame="6" />
        <path d="M356 435 H500 V600 H356 Z" fill="url(#img7)" clip-path="url(#clip7)" data-photo-frame="7" />
    </g>
</svg>