<svg viewBox="0 0 500 600" xmlns="http://www.w3.org/2000/svg" xmlns:xlink="http://www.w3.org/1999/xlink" preserveAspectRatio="none">
  <defs>
    <!-- Frame 1: Top Left -->
    <pattern id="img1" patternUnits="userSpaceOnUse" x="0" y="0" width="247.5" height="297.5">
      <image href="" x="0" y="0" width="247.5" height="297.5" preserveAspectRatio="xMidYMid slice" />
    </pattern>
    <clipPath id="clip1">
      <path d="M0 0 h247.5 v297.5 h-247.5 Z" />
    </clipPath>

    <!-- Frame 2: Top Right -->
    <pattern id="img2" patternUnits="userSpaceOnUse" x="252.5" y="0" width="247.5" height="297.5">
      <image href="" x="0" y="0" width="247.5" height="297.5" preserveAspectRatio="xMidYMid slice" />
    </pattern>
    <clipPath id="clip2">
      <path d="M252.5 0 h247.5 v297.5 h-247.5 Z" />
    </clipPath>

    <!-- Frame 3: Bottom Left -->
    <pattern id="img3" patternUnits="userSpaceOnUse" x="0" y="302.5" width="247.5" height="297.5">
      <image href="" x="0" y="0" width="247.5" height="297.5" preserveAspectRatio="xMidYMid slice" />
    </pattern>
    <clipPath id="clip3">
      <path d="M0 302.5 h247.5 v297.5 h-247.5 Z" />
    </clipPath>

    <!-- Frame 4: Bottom Right -->
    <pattern id="img4" patternUnits="userSpaceOnUse" x="252.5" y="302.5" width="247.5" height="297.5">
      <image href="" x="0" y="0" width="247.5" height="297.5" preserveAspectRatio="xMidYMid slice" />
    </pattern>
    <clipPath id="clip4">
      <path d="M252.5 302.5 h247.5 v297.5 h-247.5 Z" />
    </clipPath>
  </defs>

  <!-- Image frames -->
  <rect x="0" y="0" width="247.5" height="297.5" fill="url(#img1)" clip-path="url(#clip1)" data-photo-frame="1" />
  <rect x="252.5" y="0" width="247.5" height="297.5" fill="url(#img2)" clip-path="url(#clip2)" data-photo-frame="2" />
  <rect x="0" y="302.5" width="247.5" height="297.5" fill="url(#img3)" clip-path="url(#clip3)" data-photo-frame="3" />
  <rect x="252.5" y="302.5" width="247.5" height="297.5" fill="url(#img4)" clip-path="url(#clip4)" data-photo-frame="4" />
</svg>