<svg viewBox="0 0 500 600" xmlns="http://www.w3.org/2000/svg" xmlns:xlink="http://www.w3.org/1999/xlink" preserveAspectRatio="none">
  <defs>
    <pattern id="img1" patternUnits="userSpaceOnUse" x="20" y="24" width="215" height="132">
      <image href="" x="0" y="0" width="215" height="132" preserveAspectRatio="xMidYMid slice" />
    </pattern>
    <clipPath id="clip1">
      <path d="M20 24 h215 v132 h-215 Z" />
    </clipPath>

    <pattern id="img2" patternUnits="userSpaceOnUse" x="265" y="24" width="215" height="132">
      <image href="" x="0" y="0" width="215" height="132" preserveAspectRatio="xMidYMid slice" />
    </pattern>
    <clipPath id="clip2">
      <path d="M265 24 h215 v132 h-215 Z" />
    </clipPath>

    <pattern id="img3" patternUnits="userSpaceOnUse" x="20" y="192" width="460" height="216">
      <image href="" x="0" y="0" width="460" height="216" preserveAspectRatio="xMidYMid slice" />
    </pattern>
    <clipPath id="clip3">
      <path d="M20 192 h460 v216 h-460 Z" />
    </clipPath>

    <pattern id="img4" patternUnits="userSpaceOnUse" x="20" y="444" width="215" height="132">
      <image href="" x="0" y="0" width="215" height="132" preserveAspectRatio="xMidYMid slice" />
    </pattern>
    <clipPath id="clip4">
      <path d="M20 444 h215 v132 h-215 Z" />
    </clipPath>

    <pattern id="img5" patternUnits="userSpaceOnUse" x="265" y="444" width="215" height="132">
      <image href="" x="0" y="0" width="215" height="132" preserveAspectRatio="xMidYMid slice" />
    </pattern>
    <clipPath id="clip5">
      <path d="M265 444 h215 v132 h-215 Z" />
    </clipPath>
  </defs>

  <rect width="500" height="600" fill="#f5f5f5" />

  <rect x="20" y="24" width="215" height="132" fill="url(#img1)" clip-path="url(#clip1)" data-photo-frame="1" />
  <rect x="265" y="24" width="215" height="132" fill="url(#img2)" clip-path="url(#clip2)" data-photo-frame="2" />
  <rect x="20" y="192" width="460" height="216" fill="url(#img3)" clip-path="url(#clip3)" data-photo-frame="3" />
  <rect x="20" y="444" width="215" height="132" fill="url(#img4)" clip-path="url(#clip4)" data-photo-frame="4" />
  <rect x="265" y="444" width="215" height="132" fill="url(#img5)" clip-path="url(#clip5)" data-photo-frame="5" />
</svg>