<svg viewBox="0 0 500 600" xmlns="http://www.w3.org/2000/svg" xmlns:xlink="http://www.w3.org/1999/xlink" preserveAspectRatio="none">
  <defs>
    <!-- Frame 1: Bottom Left -->
    <pattern id="img1" patternUnits="userSpaceOnUse" x="52" y="366" width="123" height="187">
      <image href="" x="0" y="0" width="123" height="187" preserveAspectRatio="xMidYMid slice" />
    </pattern>
    <clipPath id="clip1">
      <path d="M52 366 h123 v187 h-123 Z" />
    </clipPath>

    <!-- Frame 2: Top Left -->
    <pattern id="img2" patternUnits="userSpaceOnUse" x="39" y="126" width="109" height="203">
      <image href="" x="0" y="0" width="109" height="203" preserveAspectRatio="xMidYMid slice" />
    </pattern>
    <clipPath id="clip2">
      <path d="M39 126 h109 v203 h-109 Z" />
    </clipPath>

    <!-- Frame 3: Middle Right -->
    <pattern id="img3" patternUnits="userSpaceOnUse" x="185" y="206" width="123" height="147">
      <image href="" x="0" y="0" width="123" height="147" preserveAspectRatio="xMidYMid slice" />
    </pattern>
    <clipPath id="clip3">
      <path d="M185 206 h123 v147 h-123 Z" />
    </clipPath>

    <!-- Frame 4: Bottom Right -->
    <pattern id="img4" patternUnits="userSpaceOnUse" x="165" y="390" width="129" height="155">
      <image href="" x="0" y="0" width="129" height="155" preserveAspectRatio="xMidYMid slice" />
    </pattern>
    <clipPath id="clip4">
      <path d="M165 390 h129 v155 h-129 Z" />
    </clipPath>
  </defs>

  <!-- Background with torn paper effect -->
  <path d="M0 0 H500 V600 H0 Z" fill="#d3c4a8" />
  <path fill="#f0e9d8" d="M0 0 H500 V56 C400 40, 300 64, 200 48, 100 68, 0 48 Z" />
  <path fill="#f0e9d8" d="M0 544 C100 560, 200 536, 300 552, 400 568, 500 544 V600 H0 Z" />

  <!-- Frames with decorative white borders -->
  <g transform="rotate(-10, 113, 460)">
    <path d="M47 360 h133 v200 h-133 Z" fill="#FFFFFF" style="filter: drop-shadow(2px 2px 4px rgba(0,0,0,0.2));" />
  </g>
  <path d="M52 366 h123 v187 h-123 Z" transform="rotate(-10, 113, 460)" fill="url(#img1)" clip-path="url(#clip1)" data-photo-frame="1" />

  <g transform="rotate(-5, 93, 228)">
    <path d="M33 120 h120 v216 h-120 Z" fill="#FFFFFF" style="filter: drop-shadow(2px 2px 4px rgba(0,0,0,0.2));" />
  </g>
  <path d="M39 126 h109 v203 h-109 Z" transform="rotate(-5, 93, 228)" fill="url(#img2)" clip-path="url(#clip2)" data-photo-frame="2" />

  <path d="M180 200 h133 v160 h-133 Z" fill="#FFFFFF" style="filter: drop-shadow(2px 2px 4px rgba(0,0,0,0.2));" />
  <path d="M185 206 h123 v147 h-123 Z" fill="url(#img3)" clip-path="url(#clip3)" data-photo-frame="3" />

  <path d="M160 384 h140 v168 h-140 Z" fill="#FFFFFF" style="filter: drop-shadow(2px 2px 4px rgba(0,0,0,0.2));" />
  <path d="M165 390 h129 v155 h-129 Z" fill="url(#img4)" clip-path="url(#clip4)" data-photo-frame="4" />
</svg>