<svg viewBox="0 0 500 600" xmlns="http://www.w3.org/2000/svg" xmlns:xlink="http://www.w3.org/1999/xlink" preserveAspectRatio="none">
  <defs>
    <pattern id="img1" patternUnits="userSpaceOnUse" x="12" y="15" width="240" height="555">
      <image href="" x="0" y="0" width="240" height="555" preserveAspectRatio="xMidYMid meet" />
    </pattern>
    <clipPath id="clip1"><path d="M12 15 h240 v555 h-240 Z" /></clipPath>
    <pattern id="img2" patternUnits="userSpaceOnUse" x="257" y="15" width="115" height="172">
      <image href="" x="0" y="0" width="115" height="172" preserveAspectRatio="xMidYMid meet" />
    </pattern>
    <clipPath id="clip2"><path d="M257 15 h115 v172 h-115 Z" /></clipPath>
    <pattern id="img3" patternUnits="userSpaceOnUse" x="377" y="15" width="110" height="172">
      <image href="" x="0" y="0" width="110" height="172" preserveAspectRatio="xMidYMid meet" />
    </pattern>
    <clipPath id="clip3"><path d="M377 15 h110 v172 h-110 Z" /></clipPath>
    <pattern id="img4" patternUnits="userSpaceOnUse" x="257" y="192" width="230" height="185">
      <image href="" x="0" y="0" width="230" height="185" preserveAspectRatio="xMidYMid meet" />
    </pattern>
    <clipPath id="clip4"><path d="M257 192 h230 v185 h-230 Z" /></clipPath>
    <pattern id="img5" patternUnits="userSpaceOnUse" x="257" y="382" width="115" height="188">
      <image href="" x="0" y="0" width="115" height="188" preserveAspectRatio="xMidYMid meet" />
    </pattern>
    <clipPath id="clip5"><path d="M257 382 h115 v188 h-115 Z" /></clipPath>
    <pattern id="img6" patternUnits="userSpaceOnUse" x="377" y="382" width="110" height="188">
      <image href="" x="0" y="0" width="110" height="188" preserveAspectRatio="xMidYMid meet" />
    </pattern>
    <clipPath id="clip6"><path d="M377 382 h110 v188 h-110 Z" /></clipPath>
  </defs>
  <rect width="500" height="600" fill="#f5f5f5" />
  <rect x="12" y="15" width="240" height="555" fill="url(#img1)" clip-path="url(#clip1)" data-photo-frame="1" />
  <rect x="257" y="15" width="115" height="172" fill="url(#img2)" clip-path="url(#clip2)" data-photo-frame="2" />
  <rect x="377" y="15" width="110" height="172" fill="url(#img3)" clip-path="url(#clip3)" data-photo-frame="3" />
  <rect x="257" y="192" width="230" height="185" fill="url(#img4)" clip-path="url(#clip4)" data-photo-frame="4" />
  <rect x="257" y="382" width="115" height="188" fill="url(#img5)" clip-path="url(#clip5)" data-photo-frame="5" />
  <rect x="377" y="382" width="110" height="188" fill="url(#img6)" clip-path="url(#clip6)" data-photo-frame="6" />
</svg>