<!-- DYNAMIC TEMPLATE: layout-modern-3.svg -->
<svg viewBox="0 0 500 500" xmlns="http://www.w3.org/2000/svg" xmlns:xlink="http://www.w.org/1999/xlink">
  <defs>
    <!-- FRAME 1: Left Portrait Rectangle -->
    <clipPath id="modern-clip-1">
      <path d="M20 20 H245 V480 H20 Z"/>
    </clipPath>
    <pattern id="modern-img-1" patternUnits="userSpaceOnUse" x="20" y="20" width="225" height="460">
      <image href="" preserveAspectRatio="xMidYMid slice" x="0" y="0" width="225" height="460" />
    </pattern>

    <!-- FRAME 2: Top Right Square -->
    <clipPath id="modern-clip-2">
      <path d="M255 20 H480 V245 H255 Z"/>
    </clipPath>
    <pattern id="modern-img-2" patternUnits="userSpaceOnUse" x="255" y="20" width="225" height="225">
      <image href="" preserveAspectRatio="xMidYMid slice" x="0" y="0" width="225" height="225" />
    </pattern>

    <!-- FRAME 3: Bottom Right Square -->
    <clipPath id="modern-clip-3">
      <path d="M255 255 H480 V480 H255 Z"/>
    </clipPath>
    <pattern id="modern-img-3" patternUnits="userSpaceOnUse" x="255" y="255" width="225" height="225">
      <image href="" preserveAspectRatio="xMidYMid slice" x="0" y="0" width="225" height="225" />
    </pattern>
  </defs>

  <!-- Background color of the page -->
  <rect width="500" height="500" fill="#E0E0E0"/>
  
  <!-- White border area -->
  <rect x="10" y="10" width="480" height="480" fill="#FFFFFF"/>

  <!-- Photo Frames -->
  <g>
    <!-- Frame 1 -->
    <path d="M20 20 H245 V480 H20 Z" fill="url(#modern-img-1)" clip-path="url(#modern-clip-1)" data-photo-frame="1" />
    <!-- Frame 2 -->
    <path d="M255 20 H480 V245 H255 Z" fill="url(#modern-img-2)" clip-path="url(#modern-clip-2)" data-photo-frame="2" />
    <!-- Frame 3 -->
    <path d="M255 255 H480 V480 H255 Z" fill="url(#modern-img-3)" clip-path="url(#modern-clip-3)" data-photo-frame="3" />
  </g>
</svg>