<svg viewBox="0 0 500 600" xmlns="http://www.w3.org/2000/svg" xmlns:xlink="http://www.w3.org/1999/xlink" preserveAspectRatio="none">
  <defs>
    <!-- Frame 1: Top Large -->
    <pattern id="img1" patternUnits="userSpaceOnUse" x="0" y="0" width="500" height="200">
      <image href="" x="0" y="0" width="500" height="200" preserveAspectRatio="xMidYMid slice" />
    </pattern>
    <clipPath id="clip1">
      <path d="M0 0 h500 v200 h-500 Z" />
    </clipPath>

    <!-- Frame 2: Middle Left -->
    <pattern id="img2" patternUnits="userSpaceOnUse" x="0" y="205" width="162.5" height="132.5">
      <image href="" x="0" y="0" width="162.5" height="132.5" preserveAspectRatio="xMidYMid slice" />
    </pattern>
    <clipPath id="clip2">
      <path d="M0 205 h162.5 v132.5 h-162.5 Z" />
    </clipPath>

    <!-- Frame 3: Middle Center -->
    <pattern id="img3" patternUnits="userSpaceOnUse" x="167.5" y="205" width="165" height="132.5">
      <image href="" x="0" y="0" width="165" height="132.5" preserveAspectRatio="xMidYMid slice" />
    </pattern>
    <clipPath id="clip3">
      <path d="M167.5 205 h165 v132.5 h-165 Z" />
    </clipPath>

    <!-- Frame 4: Middle Right -->
    <pattern id="img4" patternUnits="userSpaceOnUse" x="337.5" y="205" width="162.5" height="132.5">
      <image href="" x="0" y="0" width="162.5" height="132.5" preserveAspectRatio="xMidYMid slice" />
    </pattern>
    <clipPath id="clip4">
      <path d="M337.5 205 h162.5 v132.5 h-162.5 Z" />
    </clipPath>

    <!-- Frame 5: Bottom Left -->
    <pattern id="img5" patternUnits="userSpaceOnUse" x="0" y="342.5" width="247.5" height="257.5">
      <image href="" x="0" y="0" width="247.5" height="257.5" preserveAspectRatio="xMidYMid slice" />
    </pattern>
    <clipPath id="clip5">
      <path d="M0 342.5 h247.5 v257.5 h-247.5 Z" />
    </clipPath>

    <!-- Frame 6: Bottom Right -->
    <pattern id="img6" patternUnits="userSpaceOnUse" x="252.5" y="342.5" width="247.5" height="257.5">
      <image href="" x="0" y="0" width="247.5" height="257.5" preserveAspectRatio="xMidYMid slice" />
    </pattern>
    <clipPath id="clip6">
      <path d="M252.5 342.5 h247.5 v257.5 h-247.5 Z" />
    </clipPath>
  </defs>

  <!-- Image frames -->
  <rect x="0" y="0" width="500" height="200" fill="url(#img1)" clip-path="url(#clip1)" data-photo-frame="1" />
  <rect x="0" y="205" width="162.5" height="132.5" fill="url(#img2)" clip-path="url(#clip2)" data-photo-frame="2" />
  <rect x="167.5" y="205" width="165" height="132.5" fill="url(#img3)" clip-path="url(#clip3)" data-photo-frame="3" />
  <rect x="337.5" y="205" width="162.5" height="132.5" fill="url(#img4)" clip-path="url(#clip4)" data-photo-frame="4" />
  <rect x="0" y="342.5" width="247.5" height="257.5" fill="url(#img5)" clip-path="url(#clip5)" data-photo-frame="5" />
  <rect x="252.5" y="342.5" width="247.5" height="257.5" fill="url(#img6)" clip-path="url(#clip6)" data-photo-frame="6" />
</svg>