<svg viewBox="0 0 500 600" xmlns="http://www.w3.org/2000/svg" xmlns:xlink="http://www.w3.org/1999/xlink" preserveAspectRatio="none">
  <defs>
    <pattern id="img1" patternUnits="userSpaceOnUse" x="20" y="20" width="228" height="140">
      <image href="" x="0" y="0" width="228" height="140" preserveAspectRatio="xMidYMid meet" />
    </pattern>
    <clipPath id="clip1">
      <path d="M20 20 h228 v140 h-228 Z" />
    </clipPath>

    <pattern id="img2" patternUnits="userSpaceOnUse" x="253" y="20" width="227" height="140">
      <image href="" x="0" y="0" width="227" height="140" preserveAspectRatio="xMidYMid meet" />
    </pattern>
    <clipPath id="clip2">
      <path d="M253 20 h227 v140 h-227 Z" />
    </clipPath>

    <pattern id="img3" patternUnits="userSpaceOnUse" x="20" y="165" width="140" height="180">
      <image href="" x="0" y="0" width="140" height="180" preserveAspectRatio="xMidYMid meet" />
    </pattern>
    <clipPath id="clip3">
      <path d="M20 165 h140 v180 h-140 Z" />
    </clipPath>

    <pattern id="img4" patternUnits="userSpaceOnUse" x="165" y="165" width="315" height="415">
      <image href="" x="0" y="0" width="315" height="415" preserveAspectRatio="xMidYMid meet" />
    </pattern>
    <clipPath id="clip4">
      <path d="M165 165 h315 v415 h-315 Z" />
    </clipPath>

    <pattern id="img5" patternUnits="userSpaceOnUse" x="20" y="350" width="140" height="230">
      <image href="" x="0" y="0" width="140" height="230" preserveAspectRatio="xMidYMid meet" />
    </pattern>
    <clipPath id="clip5">
      <path d="M20 350 h140 v230 h-140 Z" />
    </clipPath>
  </defs>

  <rect width="500" height="600" fill="#f5f5f5" />

  <rect x="20" y="20" width="228" height="140" fill="url(#img1)" clip-path="url(#clip1)" data-photo-frame="1" />
  <rect x="253" y="20" width="227" height="140" fill="url(#img2)" clip-path="url(#clip2)" data-photo-frame="2" />
  <rect x="20" y="165" width="140" height="180" fill="url(#img3)" clip-path="url(#clip3)" data-photo-frame="3" />
  <rect x="165" y="165" width="315" height="415" fill="url(#img4)" clip-path="url(#clip4)" data-photo-frame="4" />
  <rect x="20" y="350" width="140" height="230" fill="url(#img5)" clip-path="url(#clip5)" data-photo-frame="5" />
</svg>